<?xml version="1.0" standalone="no"?>
<svg width="1000" height="1000" version="1.1" xmlns="http://www.w3.org/2000/svg">

<defs>
        <radialGradient id="RadialGradient1">
        <stop offset="0%" stop-color="rgba(255,251,0,0.993)"/>
        <stop offset="50%" stop-color="rgba(62,224,184,0.993)"/>
        <stop offset="100%" stop-color="#3638ad"/>
    </radialGradient>
</defs>

<circle cx="135" cy="122" r="120"
        stroke="none"
        fill="url(#RadialGradient1)"
        transform="scale(2)"/>

<polygon points="270 5 
                330 180
                490 150
                370 300
                420 430
                270 340
                120 430
                170 300
                50 150
                210 180"
      stroke="rgba(238,255,0,0.527)"
      fill="none"
      stroke-width="3"
      transform="scale(1)"/>

<path d="M 110 40 
         C 110 0, 10 60, 90 70
         S 70 150, 60 100" 
         stroke="black" 
         fill="rgba(255,0,0,0.712)"
         stroke-width="8"
         transform="scale(2)"/>

<path d="M 130 90
         h 80 
         M 140 120
         Q 168 -60, 200 120
         "
         fill="rgba(81,57,218,0.363)"
         stroke="black"
         stroke-width="8"
         transform="scale(2)"/>

<path d="M 50 146
         C 60 126, 66 126, 86 146 
         S 130 146, 120 126
         M 88 148
         v 60
         S 92 222, 106 204
         "
         fill="rgba(236,233,34,0.664)"
         stroke="black"
         stroke-width="8"
         transform="scale(2)"/>

<path d="M 170 196
         C 150 70, 144 150, 134 210
         M 170 196
         C 184 70, 196 150, 204 210
         "
         fill="rgba(217,16,224,0.452)"
         stroke="black"
         stroke-width="8"
         transform="scale(2)"/>

</svg>