<?xml version="1.0" standalone="no"?>
<svg width="3000" height="3000" version="1.1" xmlns="http://www.w3.org/2000/svg">

<defs>
        <radialGradient id="RadialGradient1">
        <stop offset="0%" stop-color="rgba(54,231,187,0.993)"/>
        <stop offset="100%" stop-color="#3638ad"/>
    </radialGradient>
</defs>

<circle cx="1350" cy="1220" r="1200"
        stroke="none"
        fill="url(#RadialGradient1)"/>

<path d="M 1100 400 
         C 1100 0, 100 600, 900 700
         S 700 1500, 600 1000" 
         stroke="black" 
         fill="rgba(216,27,27,0.678)"
         stroke-width="80"/>

<path d="M 1300 900
         h 800 
         M 1400 1200
         Q 1680 -600, 2000 1200
         "
         fill="rgba(81,57,218,0.363)"
         stroke="black"
         stroke-width="80"/>

<path d="M 500 1460
         C 600 1260, 660 1260, 860 1460
         S 1300 1460, 1200 1260
         M 880 1480
         v 600
         S 920 2220, 1060 2040
         "
         fill="rgba(236,233,34,0.664)"
         stroke="black"
         stroke-width="80"/>

<path d="M 1700 1960
         C 1500 700, 1440 1500, 1340 2100
         M 1700 1960
         C 1840 700, 1960 1500, 2040 2100
         "
         fill="rgba(217,16,224,0.452)"
         stroke="black"
         stroke-width="80"/>

</svg>