<?xml version="1.0" standalone="no"?>
<svg width="150" height="150" version="1.1" xmlns="http://www.w3.org/2000/svg">

<defs>
        <radialGradient id="RadialGradient1">
        <stop offset="0%" stop-color="rgba(7,55,110,0.993)"/>
        <stop offset="100%" stop-color="#29dda1"/>
    </radialGradient>
</defs>

<circle cx="67" cy="61" r="60"
        stroke="rgba(36,43,146,0.918)"
        fill="url(#RadialGradient1)"/>

<path d="M 55 20 
         C 55 0, 5 30, 45 35
         S 35 75, 30 50" 
         stroke="black" 
         fill="none"
         stroke-width="5"/>

<path d="M 65 45
         h 40 
         M 70 60
         Q 84 -30, 100 60
         "
         fill="none"
         stroke="black"
         stroke-width="5"/>

<path d="M 25 73
         C 30 63, 33 63, 43 73 
         S 65 73, 60 63
         M 44 74
         v 30
         S 46 111, 53 102
         "
         fill="none"
         stroke="black"
         stroke-width="5"/>

<path d="M 85 85
         L 70 70
         v 30
         M 84 85
         L 100 70
         v 30
         "
         fill="none"
         stroke="none"
         stroke-width="4"/>

<path d="M 85 98
         C 75 35, 72 75, 67 105
         M 85 98
         C 92 35, 98 75, 102 105
         "
         fill="none"
         stroke="black"
         stroke-width="5"/>



</svg>