<?xml version="1.0" standalone="no"?>
<svg width="300" height="300" version="1.1" xmlns="http://www.w3.org/2000/svg">

<defs>
        <radialGradient id="RadialGradient1">
        <stop offset="0%" stop-color="rgba(7,55,110,0.993)"/>
        <stop offset="100%" stop-color="#29dda1"/>
    </radialGradient>
</defs>

<circle cx="135" cy="122" r="120"
        stroke="none"
        fill="url(#RadialGradient1)"/>

<path d="M 110 40 
         C 110 0, 10 60, 90 70
         S 70 150, 60 100" 
         stroke="black" 
         fill="rgba(216,27,27,0.678)"
         stroke-width="8"/>

<path d="M 130 90
         h 80 
         M 140 120
         Q 168 -60, 200 120
         "
         fill="rgba(81,57,218,0.363)"
         stroke="black"
         stroke-width="8"/>

<path d="M 50 146
         C 60 126, 66 126, 86 146 
         S 130 146, 120 126
         M 88 148
         v 60
         S 92 222, 106 204
         "
         fill="rgba(236,233,34,0.664)"
         stroke="black"
         stroke-width="8"/>

<path d="M 170 196
         C 150 70, 144 150, 134 210
         M 170 196
         C 184 70, 196 150, 204 210
         "
         fill="rgba(217,16,224,0.452)"
         stroke="black"
         stroke-width="8"/>

</svg>